<?xml version="1.0" standalone="no"?>
<!DOCTYPE svg PUBLIC "-//W3C//DTD SVG 20010904//EN"
 "http://www.w3.org/TR/2001/REC-SVG-20010904/DTD/svg10.dtd">
<svg version="1.0" xmlns="http://www.w3.org/2000/svg"
 width="512.000000pt" height="512.000000pt" viewBox="0 0 512.000000 512.000000"
 preserveAspectRatio="xMidYMid meet">

<g transform="translate(0.000000,512.000000) scale(0.100000,-0.100000)"
fill="#000000" stroke="none">
<path d="M1190 5103 c-63 -33 -70 -61 -70 -294 l0 -206 -43 -31 c-68 -49 -183
-167 -249 -256 -33 -45 -88 -137 -121 -206 -85 -177 -128 -239 -258 -376 -68
-71 -124 -139 -137 -167 -54 -116 -53 -232 4 -347 114 -227 410 -283 608 -114
l40 34 142 0 c158 0 274 18 368 56 33 13 61 22 64 20 10 -10 -51 -197 -92
-281 -53 -109 -105 -183 -271 -385 -69 -85 -155 -198 -190 -250 -153 -228
-236 -477 -261 -777 l-7 -81 -63 -41 c-68 -43 -117 -102 -148 -179 -23 -58
-33 -233 -18 -313 24 -124 96 -220 207 -275 l60 -29 462 -3 c512 -3 504 -4
543 61 26 41 25 93 0 135 -37 61 -45 62 -509 62 -248 0 -430 4 -445 10 -47 17
-66 65 -66 160 0 95 19 143 66 160 15 6 263 10 635 10 663 0 643 -2 688 56 29
36 29 112 0 148 -45 57 -31 56 -615 56 l-536 0 7 67 c11 110 44 269 72 346 60
170 137 291 343 542 59 72 132 165 163 208 113 158 199 362 232 552 18 107 30
290 21 337 -12 67 -91 117 -156 98 -16 -4 -56 -31 -90 -59 -34 -29 -87 -64
-118 -80 -113 -57 -144 -63 -352 -70 -219 -8 -245 -15 -334 -89 -57 -47 -101
-59 -148 -39 -58 25 -83 61 -83 121 l0 53 99 104 c140 147 206 240 286 405
104 212 209 342 362 445 94 64 98 75 98 272 0 185 -4 176 70 153 164 -51 256
-127 334 -272 32 -59 55 -74 151 -99 152 -38 284 -123 363 -233 26 -36 59 -78
73 -93 36 -38 88 -46 135 -23 119 59 98 175 -60 341 -108 115 -251 202 -406
249 -36 11 -50 22 -68 54 -37 66 -149 177 -226 224 -129 80 -281 129 -441 141
-66 5 -86 3 -115 -12z"/>
<path d="M3270 4505 c-36 -8 -101 -32 -145 -54 -170 -85 -283 -216 -342 -396
-22 -67 -26 -98 -26 -195 0 -97 4 -128 26 -195 15 -44 42 -106 62 -139 19 -32
35 -59 35 -61 0 -1 -34 -5 -75 -8 -136 -10 -254 -89 -319 -212 -29 -57 -31
-66 -31 -170 0 -101 2 -115 28 -168 37 -74 110 -148 184 -183 51 -25 72 -29
172 -32 l114 -4 -7 -92 c-22 -305 -90 -507 -252 -746 -43 -63 -95 -141 -117
-174 -55 -81 -149 -282 -186 -395 -32 -96 -64 -248 -76 -358 l-7 -61 -45 -11
c-110 -28 -202 -102 -251 -201 -25 -51 -27 -66 -30 -206 -3 -131 -1 -157 17
-203 40 -105 122 -184 229 -220 62 -21 66 -21 1205 -19 l1142 3 55 26 c105 49
176 134 205 244 20 77 20 233 0 310 -36 137 -149 243 -286 269 l-36 6 -6 75
c-21 245 -134 555 -281 773 -31 45 -81 119 -112 165 -139 205 -205 397 -233
681 -6 60 -11 115 -11 122 0 8 33 13 113 15 103 4 118 7 179 37 189 93 268
318 179 509 -59 125 -183 210 -326 222 l-74 6 34 55 c19 30 47 91 62 135 24
70 27 96 28 205 0 112 -3 134 -28 207 -91 266 -323 438 -602 449 -65 2 -123
-1 -165 -11z m280 -269 c146 -52 260 -216 260 -375 0 -352 -431 -531 -679
-282 -57 56 -97 135 -113 219 -36 194 102 402 299 452 51 13 178 5 233 -14z
m531 -1072 c58 -59 48 -157 -21 -197 -25 -15 -86 -17 -655 -17 l-627 0 -33 33
c-61 61 -53 154 17 197 32 20 45 20 660 18 l628 -3 31 -31z m-466 -541 c41
-445 104 -628 329 -962 163 -242 214 -347 266 -546 15 -60 32 -143 35 -182 l8
-73 -842 0 c-807 0 -841 1 -841 18 0 54 36 221 70 323 52 159 107 264 246 469
64 96 137 216 160 265 86 180 135 376 157 623 l11 132 197 0 197 0 7 -67z
m942 -2056 c27 -27 28 -31 28 -138 l0 -111 -33 -29 -32 -29 -1101 0 c-1184 0
-1141 -2 -1169 49 -13 25 -13 217 0 241 27 51 -18 50 1172 47 l1108 -2 27 -28z"/>
</g>
</svg>
